<?xml version="1.0" encoding="UTF-8" standalone="no"?>
<!DOCTYPE svg PUBLIC "-//W3C//DTD SVG 1.1//EN"
 "http://www.w3.org/Graphics/SVG/1.1/DTD/svg11.dtd">
<!-- Generated by graphviz version 2.26.3 (20100126.1600)
 -->
<!-- Title: Application Model. Pages: 1 -->
<svg width="760pt" height="346pt"
 viewBox="0.00 0.00 760.00 346.00" xmlns="http://www.w3.org/2000/svg" xmlns:xlink="http://www.w3.org/1999/xlink">
<g id="graph1" class="graph" transform="scale(1 1) rotate(0) translate(4 342)">
<title>Application Model</title>
<polygon fill="white" stroke="white" points="-4,5 -4,-342 757,-342 757,5 -4,5"/>
<g id="graph2" class="cluster"><title>cluster_UI</title>
<polygon fill="none" stroke="black" points="141,-252 141,-330 591,-330 591,-252 141,-252"/>
<text text-anchor="middle" x="366" y="-313.4" font-family="Times Roman,serif" font-size="14.00">UI</text>
</g>
<g id="graph3" class="cluster"><title>cluster_Core</title>
<polygon fill="none" stroke="black" points="102,-94 102,-244 648,-244 648,-94 102,-94"/>
<text text-anchor="middle" x="375" y="-227.4" font-family="Times Roman,serif" font-size="14.00">Core</text>
</g>
<g id="graph6" class="cluster"><title>cluster_Platform</title>
<polygon fill="none" stroke="black" points="8,-8 8,-86 744,-86 744,-8 8,-8"/>
<text text-anchor="middle" x="376" y="-69.4" font-family="Times Roman,serif" font-size="14.00">Platform</text>
</g>
<!-- CoreEventHandler -->
<g id="node2" class="node"><title>CoreEventHandler</title>
<polygon fill="none" stroke="black" points="583,-296 431,-296 431,-260 583,-260 583,-296"/>
<text text-anchor="middle" x="507" y="-274.4" font-family="Times Roman,serif" font-size="14.00">Core Event Handler</text>
</g>
<!-- UIEventIssuers -->
<g id="node3" class="node"><title>UIEventIssuers</title>
<polygon fill="none" stroke="black" points="413,-296 285,-296 285,-260 413,-260 413,-296"/>
<text text-anchor="middle" x="349" y="-274.4" font-family="Times Roman,serif" font-size="14.00">UI Event Issuers</text>
</g>
<!-- UIEventHandler -->
<g id="node8" class="node"><title>UIEventHandler</title>
<polygon fill="none" stroke="black" points="416,-210 282,-210 282,-174 416,-174 416,-210"/>
<text text-anchor="middle" x="349" y="-188.4" font-family="Times Roman,serif" font-size="14.00">UI Event Handler</text>
</g>
<!-- UIEventIssuers&#45;&gt;UIEventHandler -->
<g id="edge11" class="edge"><title>UIEventIssuers&#45;&gt;UIEventHandler</title>
<path fill="none" stroke="black" d="M349,-259.762C349,-248.36 349,-233.434 349,-220.494"/>
<polygon fill="black" stroke="black" points="352.5,-220.212 349,-210.212 345.5,-220.212 352.5,-220.212"/>
</g>
<!-- CoreAPIUsers -->
<g id="node4" class="node"><title>CoreAPIUsers</title>
<polygon fill="none" stroke="black" points="267,-296 149,-296 149,-260 267,-260 267,-296"/>
<text text-anchor="middle" x="208" y="-274.4" font-family="Times Roman,serif" font-size="14.00">Core API Users</text>
</g>
<!-- CoreAPI -->
<g id="node7" class="node"><title>CoreAPI</title>
<polygon fill="none" stroke="black" points="246,-210 170,-210 170,-174 246,-174 246,-210"/>
<text text-anchor="middle" x="208" y="-188.4" font-family="Times Roman,serif" font-size="14.00">Core API</text>
</g>
<!-- CoreAPIUsers&#45;&gt;CoreAPI -->
<g id="edge7" class="edge"><title>CoreAPIUsers&#45;&gt;CoreAPI</title>
<path fill="none" stroke="black" d="M208,-259.762C208,-248.36 208,-233.434 208,-220.494"/>
<polygon fill="black" stroke="black" points="211.5,-220.212 208,-210.212 204.5,-220.212 211.5,-220.212"/>
</g>
<!-- CoreEventIssuers -->
<g id="node9" class="node"><title>CoreEventIssuers</title>
<polygon fill="none" stroke="black" points="580,-210 434,-210 434,-174 580,-174 580,-210"/>
<text text-anchor="middle" x="507" y="-188.4" font-family="Times Roman,serif" font-size="14.00">Core Event Issuers</text>
</g>
<!-- CoreEventIssuers&#45;&gt;CoreEventHandler -->
<g id="edge9" class="edge"><title>CoreEventIssuers&#45;&gt;CoreEventHandler</title>
<path fill="none" stroke="black" d="M507,-210.212C507,-221.609 507,-236.533 507,-249.476"/>
<polygon fill="black" stroke="black" points="503.5,-249.762 507,-259.762 510.5,-249.762 503.5,-249.762"/>
</g>
<!-- Int4 -->
<g id="node11" class="node"><title>Int4</title>
<polygon fill="none" stroke="black" points="640,-138 530,-138 530,-102 640,-102 640,-138"/>
<text text-anchor="middle" x="585" y="-116.4" font-family="Times Roman,serif" font-size="14.00">GPS interface</text>
</g>
<!-- Imp4 -->
<g id="node19" class="node"><title>Imp4</title>
<polygon fill="none" stroke="black" points="736,-52 578,-52 578,-16 736,-16 736,-52"/>
<text text-anchor="middle" x="657" y="-30.4" font-family="Times Roman,serif" font-size="14.00">GPS implementation</text>
</g>
<!-- Int4&#45;&gt;Imp4 -->
<g id="edge19" class="edge"><title>Int4&#45;&gt;Imp4</title>
<path fill="none" stroke="black" d="M600.269,-101.762C610.388,-89.6756 623.821,-73.6304 635.076,-60.1874"/>
<polygon fill="black" stroke="black" points="638.017,-62.1265 641.753,-52.2121 632.65,-57.6329 638.017,-62.1265"/>
</g>
<!-- Int3 -->
<g id="node12" class="node"><title>Int3</title>
<polygon fill="none" stroke="black" points="512,-138 378,-138 378,-102 512,-102 512,-138"/>
<text text-anchor="middle" x="445" y="-116.4" font-family="Times Roman,serif" font-size="14.00">Camera interface</text>
</g>
<!-- Imp3 -->
<g id="node18" class="node"><title>Imp3</title>
<polygon fill="none" stroke="black" points="560,-52 378,-52 378,-16 560,-16 560,-52"/>
<text text-anchor="middle" x="469" y="-30.4" font-family="Times Roman,serif" font-size="14.00">Camera implementation</text>
</g>
<!-- Int3&#45;&gt;Imp3 -->
<g id="edge17" class="edge"><title>Int3&#45;&gt;Imp3</title>
<path fill="none" stroke="black" d="M450.09,-101.762C453.304,-90.2456 457.52,-75.1353 461.156,-62.1064"/>
<polygon fill="black" stroke="black" points="464.601,-62.7849 463.918,-52.2121 457.858,-60.9032 464.601,-62.7849"/>
</g>
<!-- Int2 -->
<g id="node13" class="node"><title>Int2</title>
<polygon fill="none" stroke="black" points="360,-138 232,-138 232,-102 360,-102 360,-138"/>
<text text-anchor="middle" x="296" y="-116.4" font-family="Times Roman,serif" font-size="14.00">Socket interface</text>
</g>
<!-- Imp2 -->
<g id="node17" class="node"><title>Imp2</title>
<polygon fill="none" stroke="black" points="360,-52 186,-52 186,-16 360,-16 360,-52"/>
<text text-anchor="middle" x="273" y="-30.4" font-family="Times Roman,serif" font-size="14.00">Socket implementation</text>
</g>
<!-- Int2&#45;&gt;Imp2 -->
<g id="edge15" class="edge"><title>Int2&#45;&gt;Imp2</title>
<path fill="none" stroke="black" d="M291.122,-101.762C288.042,-90.2456 284.001,-75.1353 280.517,-62.1064"/>
<polygon fill="black" stroke="black" points="283.836,-60.9683 277.871,-52.2121 277.073,-62.7769 283.836,-60.9683"/>
</g>
<!-- Int1 -->
<g id="node14" class="node"><title>Int1</title>
<polygon fill="none" stroke="black" points="214,-138 110,-138 110,-102 214,-102 214,-138"/>
<text text-anchor="middle" x="162" y="-116.4" font-family="Times Roman,serif" font-size="14.00">File interface</text>
</g>
<!-- Imp1 -->
<g id="node16" class="node"><title>Imp1</title>
<polygon fill="none" stroke="black" points="168,-52 16,-52 16,-16 168,-16 168,-52"/>
<text text-anchor="middle" x="92" y="-30.4" font-family="Times Roman,serif" font-size="14.00">File implementation</text>
</g>
<!-- Int1&#45;&gt;Imp1 -->
<g id="edge13" class="edge"><title>Int1&#45;&gt;Imp1</title>
<path fill="none" stroke="black" d="M147.155,-101.762C137.317,-89.6756 124.257,-73.6304 113.315,-60.1874"/>
<polygon fill="black" stroke="black" points="115.851,-57.7583 106.824,-52.2121 110.422,-62.1772 115.851,-57.7583"/>
</g>
</g>
</svg>
