<?xml version="1.0" encoding="UTF-8" standalone="no"?>
<!-- Generated by graphviz version 2.36.0 (20140111.2315)
 -->

<!-- Title: G Pages: 1 -->

<svg
   xmlns:dc="http://purl.org/dc/elements/1.1/"
   xmlns:cc="http://creativecommons.org/ns#"
   xmlns:rdf="http://www.w3.org/1999/02/22-rdf-syntax-ns#"
   xmlns:svg="http://www.w3.org/2000/svg"
   xmlns="http://www.w3.org/2000/svg"
   xmlns:sodipodi="http://sodipodi.sourceforge.net/DTD/sodipodi-0.dtd"
   xmlns:inkscape="http://www.inkscape.org/namespaces/inkscape"
   width="489pt"
   height="363pt"
   viewBox="0.00 0.00 489.00 363.00"
   id="svg3190"
   version="1.1"
   inkscape:version="0.48.4 r9939"
   sodipodi:docname="diagram1_inkscape_addarrows.tex">
  <metadata
     id="metadata3355">
    <rdf:RDF>
      <cc:Work
         rdf:about="">
        <dc:format>image/svg+xml</dc:format>
        <dc:type
           rdf:resource="http://purl.org/dc/dcmitype/StillImage" />
        <dc:title></dc:title>
      </cc:Work>
    </rdf:RDF>
  </metadata>
  <defs
     id="defs3353">
    <marker
       inkscape:stockid="Arrow2Lstart"
       orient="auto"
       refY="0.0"
       refX="0.0"
       id="Arrow2Lstart"
       style="overflow:visible">
      <path
         id="path4238"
         style="fill-rule:evenodd;stroke-width:0.62500000;stroke-linejoin:round"
         d="M 8.7185878,4.0337352 L -2.2072895,0.016013256 L 8.7185884,-4.0017078 C 6.9730900,-1.6296469 6.9831476,1.6157441 8.7185878,4.0337352 z "
         transform="scale(1.1) translate(1,0)" />
    </marker>
    <marker
       inkscape:stockid="Arrow2Lend"
       orient="auto"
       refY="0.0"
       refX="0.0"
       id="Arrow2Lend"
       style="overflow:visible;">
      <path
         id="path4241"
         style="fill-rule:evenodd;stroke-width:0.62500000;stroke-linejoin:round;"
         d="M 8.7185878,4.0337352 L -2.2072895,0.016013256 L 8.7185884,-4.0017078 C 6.9730900,-1.6296469 6.9831476,1.6157441 8.7185878,4.0337352 z "
         transform="scale(1.1) rotate(180) translate(1,0)" />
    </marker>
    <marker
       inkscape:stockid="Arrow1Mend"
       orient="auto"
       refY="0.0"
       refX="0.0"
       id="Arrow1Mend"
       style="overflow:visible;">
      <path
         id="path4229"
         d="M 0.0,0.0 L 5.0,-5.0 L -12.5,0.0 L 5.0,5.0 L 0.0,0.0 z "
         style="fill-rule:evenodd;stroke:#000000;stroke-width:1.0pt;"
         transform="scale(0.4) rotate(180) translate(10,0)" />
    </marker>
    <marker
       inkscape:stockid="Arrow1Lend"
       orient="auto"
       refY="0.0"
       refX="0.0"
       id="Arrow1Lend"
       style="overflow:visible;">
      <path
         id="path4223"
         d="M 0.0,0.0 L 5.0,-5.0 L -12.5,0.0 L 5.0,5.0 L 0.0,0.0 z "
         style="fill-rule:evenodd;stroke:#000000;stroke-width:1.0pt;"
         transform="scale(0.8) rotate(180) translate(12.5,0)" />
    </marker>
    <marker
       inkscape:stockid="Arrow2Mend"
       orient="auto"
       refY="0.0"
       refX="0.0"
       id="Arrow2Mend"
       style="overflow:visible;">
      <path
         id="path4247"
         style="fill-rule:evenodd;stroke-width:0.62500000;stroke-linejoin:round;"
         d="M 8.7185878,4.0337352 L -2.2072895,0.016013256 L 8.7185884,-4.0017078 C 6.9730900,-1.6296469 6.9831476,1.6157441 8.7185878,4.0337352 z "
         transform="scale(0.6) rotate(180) translate(0,0)" />
    </marker>
    <marker
       inkscape:stockid="Arrow2Mstart"
       orient="auto"
       refY="0.0"
       refX="0.0"
       id="Arrow2Mstart"
       style="overflow:visible">
      <path
         id="path4244"
         style="fill-rule:evenodd;stroke-width:0.62500000;stroke-linejoin:round"
         d="M 8.7185878,4.0337352 L -2.2072895,0.016013256 L 8.7185884,-4.0017078 C 6.9730900,-1.6296469 6.9831476,1.6157441 8.7185878,4.0337352 z "
         transform="scale(0.6) translate(0,0)" />
    </marker>
    <marker
       inkscape:stockid="Arrow1Lstart"
       orient="auto"
       refY="0.0"
       refX="0.0"
       id="Arrow1Lstart"
       style="overflow:visible">
      <path
         id="path4220"
         d="M 0.0,0.0 L 5.0,-5.0 L -12.5,0.0 L 5.0,5.0 L 0.0,0.0 z "
         style="fill-rule:evenodd;stroke:#000000;stroke-width:1.0pt"
         transform="scale(0.8) translate(12.5,0)" />
    </marker>
    <marker
       inkscape:stockid="Arrow2Lstart"
       orient="auto"
       refY="0"
       refX="0"
       id="Arrow2Lstart-9"
       style="overflow:visible">
      <path
         inkscape:connector-curvature="0"
         id="path4238-4"
         style="fill-rule:evenodd;stroke-width:0.625;stroke-linejoin:round"
         d="M 8.7185878,4.0337352 -2.2072895,0.01601326 8.7185884,-4.0017078 c -1.7454984,2.3720609 -1.7354408,5.6174519 -6e-7,8.035443 z"
         transform="matrix(1.1,0,0,1.1,1.1,0)" />
    </marker>
    <marker
       inkscape:stockid="Arrow2Lend"
       orient="auto"
       refY="0"
       refX="0"
       id="Arrow2Lend-2"
       style="overflow:visible">
      <path
         inkscape:connector-curvature="0"
         id="path4241-8"
         style="fill-rule:evenodd;stroke-width:0.625;stroke-linejoin:round"
         d="M 8.7185878,4.0337352 -2.2072895,0.01601326 8.7185884,-4.0017078 c -1.7454984,2.3720609 -1.7354408,5.6174519 -6e-7,8.035443 z"
         transform="matrix(-1.1,0,0,-1.1,-1.1,0)" />
    </marker>
    <marker
       inkscape:stockid="Arrow2Lstart"
       orient="auto"
       refY="0"
       refX="0"
       id="Arrow2Lstart-5"
       style="overflow:visible">
      <path
         inkscape:connector-curvature="0"
         id="path4238-6"
         style="fill-rule:evenodd;stroke-width:0.625;stroke-linejoin:round"
         d="M 8.7185878,4.0337352 -2.2072895,0.01601326 8.7185884,-4.0017078 c -1.7454984,2.3720609 -1.7354408,5.6174519 -6e-7,8.035443 z"
         transform="matrix(1.1,0,0,1.1,1.1,0)" />
    </marker>
    <marker
       inkscape:stockid="Arrow2Lend"
       orient="auto"
       refY="0"
       refX="0"
       id="Arrow2Lend-5"
       style="overflow:visible">
      <path
         inkscape:connector-curvature="0"
         id="path4241-5"
         style="fill-rule:evenodd;stroke-width:0.625;stroke-linejoin:round"
         d="M 8.7185878,4.0337352 -2.2072895,0.01601326 8.7185884,-4.0017078 c -1.7454984,2.3720609 -1.7354408,5.6174519 -6e-7,8.035443 z"
         transform="matrix(-1.1,0,0,-1.1,-1.1,0)" />
    </marker>
    <marker
       inkscape:stockid="Arrow2Lstart"
       orient="auto"
       refY="0"
       refX="0"
       id="Arrow2Lstart-5-3"
       style="overflow:visible">
      <path
         inkscape:connector-curvature="0"
         id="path4238-6-6"
         style="fill-rule:evenodd;stroke-width:0.625;stroke-linejoin:round"
         d="M 8.7185878,4.0337352 -2.2072895,0.01601326 8.7185884,-4.0017078 c -1.7454984,2.3720609 -1.7354408,5.6174519 -6e-7,8.035443 z"
         transform="matrix(1.1,0,0,1.1,1.1,0)" />
    </marker>
    <marker
       inkscape:stockid="Arrow2Lend"
       orient="auto"
       refY="0"
       refX="0"
       id="Arrow2Lend-5-2"
       style="overflow:visible">
      <path
         inkscape:connector-curvature="0"
         id="path4241-5-3"
         style="fill-rule:evenodd;stroke-width:0.625;stroke-linejoin:round"
         d="M 8.7185878,4.0337352 -2.2072895,0.01601326 8.7185884,-4.0017078 c -1.7454984,2.3720609 -1.7354408,5.6174519 -6e-7,8.035443 z"
         transform="matrix(-1.1,0,0,-1.1,-1.1,0)" />
    </marker>
    <marker
       inkscape:stockid="Arrow2Lstart"
       orient="auto"
       refY="0"
       refX="0"
       id="Arrow2Lstart-5-30"
       style="overflow:visible">
      <path
         inkscape:connector-curvature="0"
         id="path4238-6-60"
         style="fill-rule:evenodd;stroke-width:0.625;stroke-linejoin:round"
         d="M 8.7185878,4.0337352 -2.2072895,0.01601326 8.7185884,-4.0017078 c -1.7454984,2.3720609 -1.7354408,5.6174519 -6e-7,8.035443 z"
         transform="matrix(1.1,0,0,1.1,1.1,0)" />
    </marker>
    <marker
       inkscape:stockid="Arrow2Lend"
       orient="auto"
       refY="0"
       refX="0"
       id="Arrow2Lend-5-28"
       style="overflow:visible">
      <path
         inkscape:connector-curvature="0"
         id="path4241-5-8"
         style="fill-rule:evenodd;stroke-width:0.625;stroke-linejoin:round"
         d="M 8.7185878,4.0337352 -2.2072895,0.01601326 8.7185884,-4.0017078 c -1.7454984,2.3720609 -1.7354408,5.6174519 -6e-7,8.035443 z"
         transform="matrix(-1.1,0,0,-1.1,-1.1,0)" />
    </marker>
    <marker
       inkscape:stockid="Arrow2Lstart"
       orient="auto"
       refY="0"
       refX="0"
       id="Arrow2Lstart-5-9"
       style="overflow:visible">
      <path
         inkscape:connector-curvature="0"
         id="path4238-6-7"
         style="fill-rule:evenodd;stroke-width:0.625;stroke-linejoin:round"
         d="M 8.7185878,4.0337352 -2.2072895,0.01601326 8.7185884,-4.0017078 c -1.7454984,2.3720609 -1.7354408,5.6174519 -6e-7,8.035443 z"
         transform="matrix(1.1,0,0,1.1,1.1,0)" />
    </marker>
    <marker
       inkscape:stockid="Arrow2Lend"
       orient="auto"
       refY="0"
       refX="0"
       id="Arrow2Lend-5-280"
       style="overflow:visible">
      <path
         inkscape:connector-curvature="0"
         id="path4241-5-9"
         style="fill-rule:evenodd;stroke-width:0.625;stroke-linejoin:round"
         d="M 8.7185878,4.0337352 -2.2072895,0.01601326 8.7185884,-4.0017078 c -1.7454984,2.3720609 -1.7354408,5.6174519 -6e-7,8.035443 z"
         transform="matrix(-1.1,0,0,-1.1,-1.1,0)" />
    </marker>
    <marker
       inkscape:stockid="Arrow2Lstart"
       orient="auto"
       refY="0"
       refX="0"
       id="Arrow2Lstart-5-2"
       style="overflow:visible">
      <path
         inkscape:connector-curvature="0"
         id="path4238-6-8"
         style="fill-rule:evenodd;stroke-width:0.625;stroke-linejoin:round"
         d="M 8.7185878,4.0337352 -2.2072895,0.01601326 8.7185884,-4.0017078 c -1.7454984,2.3720609 -1.7354408,5.6174519 -6e-7,8.035443 z"
         transform="matrix(1.1,0,0,1.1,1.1,0)" />
    </marker>
    <marker
       inkscape:stockid="Arrow2Lend"
       orient="auto"
       refY="0"
       refX="0"
       id="Arrow2Lend-5-6"
       style="overflow:visible">
      <path
         inkscape:connector-curvature="0"
         id="path4241-5-6"
         style="fill-rule:evenodd;stroke-width:0.625;stroke-linejoin:round"
         d="M 8.7185878,4.0337352 -2.2072895,0.01601326 8.7185884,-4.0017078 c -1.7454984,2.3720609 -1.7354408,5.6174519 -6e-7,8.035443 z"
         transform="matrix(-1.1,0,0,-1.1,-1.1,0)" />
    </marker>
  </defs>
  <sodipodi:namedview
     pagecolor="#ffffff"
     bordercolor="#666666"
     borderopacity="1"
     objecttolerance="10"
     gridtolerance="10"
     guidetolerance="10"
     inkscape:pageopacity="0"
     inkscape:pageshadow="2"
     inkscape:window-width="1366"
     inkscape:window-height="748"
     id="namedview3351"
     showgrid="true"
     inkscape:snap-grids="true"
     showguides="true"
     inkscape:snap-global="false"
     inkscape:zoom="1.2980716"
     inkscape:cx="305.625"
     inkscape:cy="264.85845"
     inkscape:window-x="-2"
     inkscape:window-y="-3"
     inkscape:window-maximized="1"
     inkscape:current-layer="svg3190">
    <inkscape:grid
       type="xygrid"
       id="grid7031" />
  </sodipodi:namedview>
  <g
     class="cluster"
     id="clust1"
     transform="matrix(0.82278083,0,0,0.81873564,28.784199,295.02694)">
    <title
       id="title3198">cluster_packages</title>
    <polygon
       style="fill:none;stroke:#000000"
       id="polygon3200"
       points="8,-147 8,-316 92,-316 92,-147 8,-147 " />
    <text
       style="font-size:14px;text-anchor:middle;font-family:'Times,serif'"
       id="text3202"
       font-size="14.00"
       y="-300.79999"
       x="50">packages</text>
  </g>
  <g
     class="cluster"
     id="clust2"
     transform="matrix(0.82278083,0,0,0.81873564,54.55004,295.67567)">
    <title
       id="title3205">cluster_latex</title>
    <polygon
       style="fill:none;stroke:#000000"
       id="polygon3207"
       points="362,-93 100,-93 100,-93 100,-347 362,-347 " />
    <text
       style="font-size:14px;text-anchor:middle;font-family:'Times,serif'"
       id="text3209"
       font-size="14.00"
       y="-331.79999"
       x="231">latex</text>
  </g>
  <g
     class="cluster"
     id="clust3"
     transform="matrix(0.82278083,0,0,0.81873564,54.55004,295.67567)">
    <title
       id="title3212">cluster_latex_graphics_packages</title>
    <polygon
       style="fill:none;stroke:#000000"
       id="polygon3214"
       points="354,-147 238,-147 238,-147 238,-316 354,-316 " />
    <text
       style="font-size:14px;text-anchor:middle;font-family:'Times,serif'"
       id="text3216"
       font-size="14.00"
       y="-300.79999"
       x="296">graphics packages</text>
  </g>
  <g
     class="cluster"
     id="clust4"
     transform="matrix(0.82278083,0,0,0.81873564,54.55004,295.67567)">
    <title
       id="title3219">cluster_latex_embedding_support</title>
    <polygon
       style="fill:none;stroke:#000000"
       id="polygon3221"
       points="230,-147 108,-147 108,-147 108,-316 230,-316 " />
    <text
       style="font-size:14px;text-anchor:middle;font-family:'Times,serif'"
       id="text3223"
       font-size="14.00"
       y="-300.79999"
       x="169">embedding support</text>
  </g>
  <g
     class="cluster"
     id="clust5"
     transform="matrix(0.82278083,0,0,0.81873564,79.984199,295.02694)">
    <title
       id="title3226">cluster_editors</title>
    <polygon
       style="fill:none;stroke:#000000"
       id="polygon3228"
       points="370,-147 370,-316 473,-316 473,-147 370,-147 " />
    <text
       style="font-size:14px;text-anchor:middle;font-family:'Times,serif'"
       id="text3230"
       font-size="14.00"
       y="-300.79999"
       x="421.5">graphics editors</text>
  </g>
  <g
     class="cluster"
     id="clust6"
     transform="matrix(0.82278083,0,0,0.81873564,52.784199,322.22694)">
    <title
       id="title3233">cluster_formats</title>
    <polygon
       style="fill:none;stroke:#000000"
       id="polygon3235"
       points="303,-8 161,-8 161,-8 161,-85 303,-85 " />
    <text
       style="font-size:14px;text-anchor:middle;font-family:'Times,serif'"
       id="text3237"
       font-size="14.00"
       y="-69.800003"
       x="232">general formats</text>
  </g>
  <g
     class="node"
     id="node1"
     transform="matrix(0.82278083,0,0,0.81873564,28.784199,295.02694)">
    <title
       id="title3240">GNUPlot</title>
    <polygon
       style="fill:none;stroke:#000000"
       id="polygon3242"
       points="16,-248 16,-284 84,-284 84,-248 16,-248 " />
    <text
       style="font-size:14px;text-anchor:middle;font-family:'Times,serif'"
       id="text3244"
       font-size="14.00"
       y="-262.29999"
       x="50">GNUPlot</text>
  </g>
  <g
     class="node"
     id="node2"
     transform="matrix(0.82278083,0,0,0.81873564,28.784199,295.02694)">
    <title
       id="title3247">Sage</title>
    <polygon
       style="fill:none;stroke:#000000"
       id="polygon3249"
       points="23,-202 23,-238 77,-238 77,-202 23,-202 " />
    <text
       style="font-size:14px;text-anchor:middle;font-family:'Times,serif'"
       id="text3251"
       font-size="14.00"
       y="-216.3"
       x="50">Sage</text>
  </g>
  <g
     class="node"
     id="node3"
     transform="matrix(0.82278083,0,0,0.81873564,28.784199,295.02694)">
    <title
       id="title3254">Graphviz</title>
    <polygon
       style="fill:none;stroke:#000000"
       id="polygon3256"
       points="16.5,-156 16.5,-192 83.5,-192 83.5,-156 16.5,-156 " />
    <text
       style="font-size:14px;text-anchor:middle;font-family:'Times,serif'"
       id="text3258"
       font-size="14.00"
       y="-170.3"
       x="50">Graphviz</text>
  </g>
  <g
     class="node"
     id="node4"
     transform="matrix(0.82278083,0,0,0.81873564,54.55004,295.67567)">
    <title
       id="title3261">pstricks</title>
    <polygon
       style="fill:none;stroke:#000000"
       id="polygon3263"
       points="305.5,-248 246.5,-248 246.5,-248 246.5,-284 305.5,-284 " />
    <text
       style="font-size:14px;text-anchor:middle;font-family:'Times,serif'"
       id="text3265"
       font-size="14.00"
       y="-262.29999"
       x="276">pstricks</text>
  </g>
  <g
     class="node"
     id="node5"
     transform="matrix(0.82278083,0,0,0.81873564,54.55004,295.67567)">
    <title
       id="title3268">tikz</title>
    <polygon
       style="fill:none;stroke:#000000"
       id="polygon3270"
       points="301,-202 247,-202 247,-202 247,-238 301,-238 " />
    <text
       style="font-size:14px;text-anchor:middle;font-family:'Times,serif'"
       id="text3272"
       font-size="14.00"
       y="-216.3"
       x="274">tikz</text>
  </g>
  <g
     class="node"
     id="node6"
     transform="matrix(0.82278083,0,0,0.81873564,54.55004,295.67567)">
    <title
       id="title3275">eepic</title>
    <polygon
       style="fill:none;stroke:#000000"
       id="polygon3277"
       points="301,-156 247,-156 247,-156 247,-192 301,-192 " />
    <text
       style="font-size:14px;text-anchor:middle;font-family:'Times,serif'"
       id="text3279"
       font-size="14.00"
       y="-170.3"
       x="274">eepic</text>
  </g>
  <g
     class="node"
     id="node11"
     transform="matrix(0.82278083,0,0,0.81873564,54.55004,295.67567)">
    <title
       id="title3282">graphics</title>
    <polygon
       style="fill:none;stroke:#000000"
       id="polygon3284"
       points="303,-102 241,-102 241,-102 241,-138 303,-138 " />
    <text
       style="font-size:14px;text-anchor:middle;font-family:'Times,serif'"
       id="text3286"
       font-size="14.00"
       y="-116.3"
       x="272">graphics</text>
  </g>
  <g
     class="node"
     id="node7"
     transform="matrix(0.82278083,0,0,0.81873564,54.55004,295.67567)">
    <title
       id="title3289">gnuplot</title>
    <polygon
       style="fill:none;stroke:#000000"
       id="polygon3291"
       points="220,-248 162,-248 162,-248 162,-284 220,-284 " />
    <text
       style="font-size:14px;text-anchor:middle;font-family:'Times,serif'"
       id="text3293"
       font-size="14.00"
       y="-262.29999"
       x="191">gnuplot</text>
  </g>
  <g
     class="node"
     id="node8"
     transform="matrix(0.82278083,0,0,0.81873564,54.55004,295.67567)">
    <title
       id="title3296">sagetex</title>
    <polygon
       style="fill:none;stroke:#000000"
       id="polygon3298"
       points="219.5,-202 162.5,-202 162.5,-202 162.5,-238 219.5,-238 " />
    <text
       style="font-size:14px;text-anchor:middle;font-family:'Times,serif'"
       id="text3300"
       font-size="14.00"
       y="-216.3"
       x="191">sagetex</text>
  </g>
  <g
     class="node"
     id="node9"
     transform="matrix(0.82278083,0,0,0.81873564,54.55004,295.67567)">
    <title
       id="title3303">dot2texi</title>
    <polygon
       style="fill:none;stroke:#000000"
       id="polygon3305"
       points="221.5,-156 160.5,-156 160.5,-156 160.5,-192 221.5,-192 " />
    <text
       style="font-size:14px;text-anchor:middle;font-family:'Times,serif'"
       id="text3307"
       font-size="14.00"
       y="-170.3"
       x="191">dot2texi</text>
  </g>
  <g
     class="node"
     id="node10"
     transform="matrix(0.82278083,0,0,0.81873564,54.55004,295.67567)">
    <title
       id="title3310">psfrag</title>
    <polygon
       style="fill:none;stroke:#000000"
       id="polygon3312"
       points="220,-102 166,-102 166,-102 166,-138 220,-138 " />
    <text
       style="font-size:14px;text-anchor:middle;font-family:'Times,serif'"
       id="text3314"
       font-size="14.00"
       y="-116.3"
       x="193">psfrag</text>
  </g>
  <g
     class="node"
     id="node15"
     transform="matrix(0.82278083,0,0,0.81873564,52.784199,322.22694)">
    <title
       id="title3317">ps</title>
    <polygon
       style="fill:none;stroke:#000000"
       id="polygon3319"
       points="169,-53 223,-53 223,-17 169,-17 169,-17 " />
    <text
       style="font-size:14px;text-anchor:middle;font-family:'Times,serif'"
       id="text3321"
       font-size="14.00"
       y="-31.299999"
       x="196">ps</text>
  </g>
  <g
     class="node"
     id="node16"
     transform="matrix(0.82278083,0,0,0.81873564,52.784199,322.22694)">
    <title
       id="title3324">pdf</title>
    <polygon
       style="fill:none;stroke:#000000"
       id="polygon3326"
       points="241,-53 295,-53 295,-17 241,-17 241,-17 " />
    <text
       style="font-size:14px;text-anchor:middle;font-family:'Times,serif'"
       id="text3328"
       font-size="14.00"
       y="-31.299999"
       x="268">pdf</text>
  </g>
  <g
     class="node"
     id="node12"
     transform="matrix(0.82278083,0,0,0.81873564,79.984199,295.02694)">
    <title
       id="title3331">LatexDraw</title>
    <polygon
       style="fill:none;stroke:#000000"
       id="polygon3333"
       points="382.5,-248 382.5,-284 459.5,-284 459.5,-248 382.5,-248 " />
    <text
       style="font-size:14px;text-anchor:middle;font-family:'Times,serif'"
       id="text3335"
       font-size="14.00"
       y="-262.29999"
       x="421">LatexDraw</text>
  </g>
  <g
     class="node"
     id="node13"
     transform="matrix(0.82278083,0,0,0.81873564,79.984199,295.02694)">
    <title
       id="title3338">jPicEdt</title>
    <polygon
       style="fill:none;stroke:#000000"
       id="polygon3340"
       points="393,-202 393,-238 449,-238 449,-202 393,-202 " />
    <text
       style="font-size:14px;text-anchor:middle;font-family:'Times,serif'"
       id="text3342"
       font-size="14.00"
       y="-216.3"
       x="421">jPicEdt</text>
  </g>
  <g
     class="node"
     id="node14"
     transform="matrix(0.82278083,0,0,0.81873564,79.984199,295.02694)">
    <title
       id="title3345">Inkscape</title>
    <polygon
       style="fill:none;stroke:#000000"
       id="polygon3347"
       points="388.5,-156 388.5,-192 453.5,-192 453.5,-156 388.5,-156 " />
    <text
       style="font-size:14px;text-anchor:middle;font-family:'Times,serif'"
       id="text3349"
       font-size="14.00"
       y="-170.3"
       x="421">Inkscape</text>
  </g>
  <path
     style="opacity:0.98999999;fill:none;stroke:#000000;stroke-width:0.80465871px;stroke-linecap:butt;stroke-linejoin:miter;stroke-opacity:1;marker-start:url(#Arrow2Lstart);marker-mid:none;marker-end:url(#Arrow2Lend)"
     d="M 79.094002,175.49416 184.31348,279.48954"
     id="path3446"
     inkscape:connector-curvature="0"
     sodipodi:nodetypes="cc" />
  <path
     style="opacity:0.98999999;fill:none;stroke:#000000;stroke-width:0.80000001px;stroke-linecap:butt;stroke-linejoin:miter;stroke-opacity:1;marker-start:url(#Arrow2Lstart);marker-mid:none;marker-end:url(#Arrow2Lend)"
     d="m 406.86222,175.43259 -104,104"
     id="path3446-4"
     inkscape:connector-curvature="0"
     sodipodi:nodetypes="cc" />
  <path
     style="fill:none;stroke:#000000;stroke-width:0.64742941;stroke-linecap:butt;stroke-linejoin:miter;stroke-miterlimit:4;stroke-opacity:1;stroke-dasharray:none;marker-start:url(#Arrow2Lstart-5);marker-end:url(#Arrow2Lend-5)"
     d="m 104.63521,106.91595 31.3688,0"
     id="path7033-4"
     inkscape:connector-curvature="0" />
  <path
     style="fill:none;stroke:#000000;stroke-width:0.64742941;stroke-linecap:butt;stroke-linejoin:miter;stroke-miterlimit:4;stroke-opacity:1;stroke-dasharray:none;marker-start:url(#Arrow2Lstart-5);marker-end:url(#Arrow2Lend-5)"
     d="m 352.88496,106.82682 31.3688,0"
     id="path7033-4-0"
     inkscape:connector-curvature="0" />
  <path
     style="fill:none;stroke:#000000;stroke-width:0.64742941;stroke-linecap:butt;stroke-linejoin:miter;stroke-miterlimit:4;stroke-opacity:1;stroke-dasharray:none;marker-start:url(#Arrow2Lstart-5);marker-end:url(#Arrow2Lend-5)"
     d="m 247.96443,220.34564 0,31.3688"
     id="path7033-4-7"
     inkscape:connector-curvature="0" />
</svg>
